<svg width="37" height="37" viewBox="0 0 37 37" fill="none" xmlns="http://www.w3.org/2000/svg">
<path d="M20.1673 3.45182L23.0576 10.9666C23.5276 12.1886 23.7626 12.7997 24.1281 13.3136C24.452 13.7692 24.85 14.1671 25.3055 14.491C25.8195 14.8565 26.4305 15.0915 27.6525 15.5615L35.1673 18.4518L27.6526 21.3421C26.4305 21.8121 25.8195 22.0471 25.3055 22.4126C24.85 22.7365 24.452 23.1345 24.1281 23.59C23.7626 24.104 23.5276 24.715 23.0576 25.9371L20.1673 33.4518L17.277 25.9371C16.807 24.715 16.572 24.104 16.2065 23.59C15.8826 23.1345 15.4846 22.7365 15.0291 22.4126C14.5152 22.0471 13.9041 21.8121 12.6821 21.3421L5.16732 18.4518L12.6821 15.5615C13.9041 15.0915 14.5152 14.8565 15.0291 14.491C15.4846 14.1671 15.8826 13.7692 16.2065 13.3136C16.572 12.7997 16.807 12.1886 17.277 10.9666L20.1673 3.45182Z" fill="white"/>
<path d="M6.00065 35.1185V26.7852M6.00065 10.1185V1.78516M1.83398 5.95182H10.1673M1.83398 30.9518H10.1673M20.1673 3.45182L17.277 10.9666C16.807 12.1886 16.572 12.7997 16.2065 13.3136C15.8826 13.7692 15.4846 14.1671 15.0291 14.491C14.5152 14.8565 13.9041 15.0915 12.6821 15.5615L5.16732 18.4518L12.6821 21.3421C13.9041 21.8121 14.5152 22.0471 15.0291 22.4126C15.4846 22.7365 15.8826 23.1345 16.2065 23.59C16.572 24.104 16.807 24.715 17.277 25.9371L20.1673 33.4518L23.0576 25.9371C23.5276 24.715 23.7626 24.104 24.1281 23.59C24.452 23.1345 24.85 22.7365 25.3055 22.4126C25.8195 22.0471 26.4305 21.8121 27.6526 21.3421L35.1673 18.4518L27.6525 15.5615C26.4305 15.0915 25.8195 14.8565 25.3055 14.491C24.85 14.1671 24.452 13.7692 24.1281 13.3136C23.7626 12.7997 23.5276 12.1886 23.0576 10.9666L20.1673 3.45182Z" stroke="url(#paint0_linear_116_12282)" stroke-width="3.33333" stroke-linecap="round" stroke-linejoin="round"/>
<defs>
<linearGradient id="paint0_linear_116_12282" x1="1.83398" y1="2.53516" x2="41.4536" y2="22.8713" gradientUnits="userSpaceOnUse">
<stop stop-color="#00A2FF"/>
<stop offset="0.513961" stop-color="#1B75DE"/>
<stop offset="1" stop-color="#113045"/>
</linearGradient>
</defs>
</svg>
