<svg width="38" height="39" viewBox="0 0 38 39" fill="none" xmlns="http://www.w3.org/2000/svg">
<path d="M20.9707 29.0516H9.55547M24.7758 21.4414H9.55547M17.1656 4.31856H11.0775C7.88094 4.31856 6.28266 4.31856 5.06173 4.94065C3.98777 5.48786 3.11461 6.36101 2.56741 7.43497C1.94531 8.6559 1.94531 10.2542 1.94531 13.4507V27.5295C1.94531 30.7261 1.94531 32.3244 2.56741 33.5453C3.11461 34.6193 3.98777 35.4924 5.06173 36.0396C6.28266 36.6617 7.88094 36.6617 11.0775 36.6617H25.1563C28.3529 36.6617 29.9512 36.6617 31.1721 36.0396C32.246 35.4924 33.1192 34.6193 33.6664 33.5453C34.2885 32.3244 34.2885 30.7261 34.2885 27.5295V21.4414M34.5193 4.08774C36.7483 6.3167 36.7483 9.93057 34.5193 12.1595C32.2904 14.3885 28.6765 14.3885 26.4475 12.1595C24.2186 9.93057 24.2186 6.3167 26.4475 4.08774C28.6765 1.85877 32.2904 1.85877 34.5193 4.08774Z" stroke="url(#paint0_linear_116_12269)" stroke-width="3.33333" stroke-linecap="round" stroke-linejoin="round"/>
<defs>
<linearGradient id="paint0_linear_116_12269" x1="1.94531" y1="3.18654" x2="42.6494" y2="24.0793" gradientUnits="userSpaceOnUse">
<stop stop-color="#00A2FF"/>
<stop offset="0.513961" stop-color="#1B75DE"/>
<stop offset="1" stop-color="#113045"/>
</linearGradient>
</defs>
</svg>
