<svg width="38" height="33" viewBox="0 0 38 33" fill="none" xmlns="http://www.w3.org/2000/svg">
<path d="M25.7347 3.15265C28.2042 4.3799 29.9014 6.92828 29.9014 9.87305C29.9014 12.8178 28.2042 15.3662 25.7347 16.5934M29.068 25.317C31.5871 26.4569 33.8556 28.3147 35.7347 30.7064M2.40137 30.7064C5.64552 26.5773 10.05 24.0397 14.9014 24.0397C19.7527 24.0397 24.1572 26.5773 27.4014 30.7064M22.4014 9.87305C22.4014 14.0152 19.0435 17.373 14.9014 17.373C10.7592 17.373 7.40137 14.0152 7.40137 9.87305C7.40137 5.73091 10.7592 2.37305 14.9014 2.37305C19.0435 2.37305 22.4014 5.73091 22.4014 9.87305Z" stroke="url(#paint0_linear_116_12275)" stroke-width="3.33333" stroke-linecap="round" stroke-linejoin="round"/>
<defs>
<linearGradient id="paint0_linear_116_12275" x1="2.40137" y1="3.01055" x2="39.0831" y2="25.1614" gradientUnits="userSpaceOnUse">
<stop stop-color="#00A2FF"/>
<stop offset="0.513961" stop-color="#1B75DE"/>
<stop offset="1" stop-color="#113045"/>
</linearGradient>
</defs>
</svg>
