<svg width="28" height="27" viewBox="0 0 28 27" fill="none" xmlns="http://www.w3.org/2000/svg">
<g clip-path="url(#clip0_116_14334)">
<circle cx="13.7407" cy="13.0259" r="9.60791" fill="#00A2FF"/>
<path d="M13.7409 13.9766L17.7105 10.154C18.0637 9.81397 18.6224 9.81397 18.9756 10.154C19.348 10.5127 19.348 11.109 18.9756 11.4677L14.4346 15.8405C14.0473 16.2134 13.4346 16.2134 13.0473 15.8405L8.50633 11.4677C8.13384 11.109 8.13384 10.5127 8.50633 10.154C8.85945 9.81397 9.41823 9.81397 9.77136 10.154L13.7409 13.9766Z" fill="white"/>
</g>
<defs>
<clipPath id="clip0_116_14334">
<path d="M0.240234 10.0254C0.240234 4.50254 4.71739 0.0253906 10.2402 0.0253906H17.2402C22.7631 0.0253906 27.2402 4.50254 27.2402 10.0254V16.0254C27.2402 21.5482 22.7631 26.0254 17.2402 26.0254H10.2402C4.71739 26.0254 0.240234 21.5482 0.240234 16.0254V10.0254Z" fill="white"/>
</clipPath>
</defs>
</svg>
