<svg width="28" height="27" viewBox="0 0 28 27" fill="none" xmlns="http://www.w3.org/2000/svg">
<g clip-path="url(#clip0_116_14561)">
<circle cx="13.7407" cy="13.0259" r="9.60791" fill="#00A2FF"/>
<path d="M14.6904 13.0266L10.8679 9.05704C10.5278 8.70392 10.5278 8.14513 10.8679 7.79201C11.2266 7.41953 11.8229 7.41953 12.1816 7.79201L16.5544 12.333C16.9273 12.7202 16.9273 13.333 16.5544 13.7203L12.1816 18.2613C11.8229 18.6337 11.2266 18.6337 10.8679 18.2613C10.5278 17.9081 10.5278 17.3493 10.8679 16.9962L14.6904 13.0266Z" fill="white"/>
</g>
<defs>
<clipPath id="clip0_116_14561">
<path d="M0.240234 10.0254C0.240234 4.50254 4.71739 0.0253906 10.2402 0.0253906H17.2402C22.7631 0.0253906 27.2402 4.50254 27.2402 10.0254V16.0254C27.2402 21.5482 22.7631 26.0254 17.2402 26.0254H10.2402C4.71739 26.0254 0.240234 21.5482 0.240234 16.0254V10.0254Z" fill="white"/>
</clipPath>
</defs>
</svg>
