<svg width="20" height="20" viewBox="0 0 20 20" fill="none" xmlns="http://www.w3.org/2000/svg">
<circle cx="10.2119" cy="10.0205" r="9.60791" fill="#00A2FF"/>
<path d="M8.33475 13.4193C7.9913 13.0758 7.9913 12.519 8.33475 12.1756L13.8864 6.62387C14.2299 6.28043 14.7867 6.28043 15.1302 6.62387C15.4736 6.96731 15.4736 7.52414 15.1302 7.86758L9.57846 13.4193C9.23501 13.7627 8.67819 13.7627 8.33475 13.4193Z" fill="white"/>
<path d="M5.2927 9.13254C5.63614 8.7891 6.19296 8.7891 6.53641 9.13254L9.57866 12.1748C9.9221 12.5182 9.9221 13.0751 9.57866 13.4185C9.23522 13.7619 8.67839 13.7619 8.33495 13.4185L5.2927 10.3762C4.94925 10.0328 4.94925 9.47598 5.2927 9.13254Z" fill="white"/>
</svg>
