<svg width="28" height="27" viewBox="0 0 28 27" fill="none" xmlns="http://www.w3.org/2000/svg">
<g clip-path="url(#clip0_378_5126)">
<circle cx="13.5581" cy="13.5278" r="9.60791" fill="#C2C9D1" fill-opacity="0.29"/>
<path d="M13.5581 14.478L17.5277 10.6554C17.8808 10.3154 18.4396 10.3154 18.7927 10.6554V10.6554C19.1652 11.0141 19.1652 11.6104 18.7927 11.9691L14.2517 16.3419C13.8645 16.7148 13.2517 16.7148 12.8644 16.3419L8.32346 11.9691C7.95098 11.6104 7.95098 11.0141 8.32346 10.6554V10.6554C8.67659 10.3154 9.23537 10.3154 9.58849 10.6554L13.5581 14.478Z" fill="#1D1D1D"/>
</g>
<defs>
<clipPath id="clip0_378_5126">
<path d="M0.0581055 10.5278C0.0581055 5.00498 4.53526 0.527832 10.0581 0.527832H17.0581C22.581 0.527832 27.0581 5.00498 27.0581 10.5278V16.5278C27.0581 22.0507 22.581 26.5278 17.0581 26.5278H10.0581C4.53526 26.5278 0.0581055 22.0507 0.0581055 16.5278V10.5278Z" fill="white"/>
</clipPath>
</defs>
</svg>
