<svg width="28" height="27" viewBox="0 0 28 27" fill="none" xmlns="http://www.w3.org/2000/svg">
<g clip-path="url(#clip0_408_4705)">
<circle cx="13.728" cy="13.5029" r="9.60791" fill="#C2C9D1" fill-opacity="0.29"/>
<path d="M14.678 13.5023L10.8554 9.53275C10.5154 9.17963 10.5154 8.62084 10.8554 8.26772C11.2141 7.89524 11.8104 7.89524 12.1691 8.26772L16.5419 12.8087C16.9148 13.1959 16.9148 13.8087 16.5419 14.196L12.1691 18.737C11.8104 19.1094 11.2141 19.1094 10.8554 18.737C10.5154 18.3838 10.5154 17.8251 10.8554 17.4719L14.678 13.5023Z" fill="#1D1D1D"/>
</g>
<defs>
<clipPath id="clip0_408_4705">
<path d="M0.228027 10.5024C0.228027 4.97959 4.70518 0.502441 10.228 0.502441H17.228C22.7509 0.502441 27.228 4.97959 27.228 10.5024V16.5024C27.228 22.0253 22.7509 26.5024 17.228 26.5024H10.228C4.70518 26.5024 0.228027 22.0253 0.228027 16.5024V10.5024Z" fill="white"/>
</clipPath>
</defs>
</svg>
