<svg width="52" height="52" viewBox="0 0 52 52" fill="none" xmlns="http://www.w3.org/2000/svg">
<rect x="0.5" y="-0.5" width="50.3916" height="50.3916" rx="9.5" transform="matrix(1 0 0 -1 0.526855 50.6567)" fill="white" stroke="#C2C9D1"/>
<g clip-path="url(#clip0_1_8017)">
<path d="M25.0023 25.9609L30.0281 20.7418C30.401 20.3546 30.401 19.7418 30.0281 19.3545L29.7899 19.1072C29.3966 18.6987 28.7426 18.6987 28.3493 19.1072L22.4173 25.2673C22.0444 25.6545 22.0444 26.2673 22.4173 26.6546L28.3493 32.8147C28.7426 33.2231 29.3966 33.2231 29.7899 32.8147L30.0281 32.5673C30.401 32.1801 30.401 31.5673 30.0281 31.18L25.0023 25.9609Z" fill="#1D1D1D"/>
</g>
<defs>
<clipPath id="clip0_1_8017">
<path d="M32.9249 43.3056C38.4478 43.3056 42.9249 38.8285 42.9249 33.3056V18.6163C42.9249 13.0934 38.4478 8.61627 32.9249 8.61627H19.5204C13.9975 8.61627 9.52039 13.0934 9.52039 18.6163V33.3056C9.52039 38.8284 13.9975 43.3056 19.5204 43.3056H32.9249Z" fill="white"/>
</clipPath>
</defs>
</svg>
