<svg width="50" height="50" viewBox="0 0 50 50" fill="none" xmlns="http://www.w3.org/2000/svg">
<path d="M39.5772 49.633H10.4516C4.6902 49.633 0 44.9891 0 39.2846V10.4466C0 4.74204 4.6902 0.0981445 10.4516 0.0981445H39.5482C45.3097 0.0981445 49.9999 4.74204 49.9999 10.4466V39.2559C50.0288 44.9891 45.3386 49.633 39.5772 49.633Z" fill="#00A2FF"/>
<path d="M12.2969 33.7525C14.1357 33.7525 15.6263 32.2765 15.6263 30.4559C15.6263 28.6352 14.1357 27.1593 12.2969 27.1593C10.4581 27.1593 8.96741 28.6352 8.96741 30.4559C8.96741 32.2765 10.4581 33.7525 12.2969 33.7525Z" fill="white"/>
<path d="M20.5234 33.7525C22.3622 33.7525 23.8529 32.2765 23.8529 30.4559C23.8529 28.6352 22.3622 27.1593 20.5234 27.1593C18.6846 27.1593 17.194 28.6352 17.194 30.4559C17.194 32.2765 18.6846 33.7525 20.5234 33.7525Z" fill="white"/>
<path d="M20.5234 41.4071C22.3622 41.4071 23.8529 39.9312 23.8529 38.1106C23.8529 36.2899 22.3622 34.814 20.5234 34.814C18.6846 34.814 17.194 36.2899 17.194 38.1106C17.194 39.9312 18.6846 41.4071 20.5234 41.4071Z" fill="white"/>
<path d="M19.6529 8.92871V21.6564H19.595L16.2655 18.3312L12.9071 21.6564H12.8492V8.92871H7.75366V26.0423H25.009V8.92871H19.6529Z" fill="white"/>
<path d="M42.2387 8.92773H24.9255V11.2497H39.9516V26.0413H42.2387V11.2497V8.92773Z" fill="white"/>
<path d="M24.8364 16.1224H34.9406V26.2702H37.3726V16.1224V13.7432H24.8364V16.1224Z" fill="white"/>
<path d="M32.5345 18.5879H24.9491V20.9958H30.0736V26.299H32.5345V19.3619V18.5879Z" fill="white"/>
<path d="M12.3025 34.8422C11.6656 34.8422 11.0865 35.0142 10.5944 35.3295C11.7814 37.1354 13.3158 38.7121 15.0819 39.9447C15.4293 39.4287 15.632 38.7981 15.632 38.1388C15.632 36.3041 14.1265 34.8422 12.3025 34.8422Z" fill="white"/>
<path d="M25.0118 26.0426V43.0989C34.537 43.0989 42.2382 35.4451 42.2382 26.0426H25.0118ZM33.8422 34.1838V36.993H31.2654V34.1838C30.3679 33.7251 29.731 32.7791 29.731 31.6898C29.731 30.1418 31.0049 28.8805 32.5683 28.8805C34.1317 28.8805 35.4056 30.1418 35.4056 31.6898C35.3766 32.7791 34.7686 33.7251 33.8422 34.1838Z" fill="white"/>
</svg>
