<svg width="42" height="43" viewBox="0 0 42 43" fill="none" xmlns="http://www.w3.org/2000/svg">
<path d="M8.96982 34.6765C10.0648 32.0967 12.6213 30.2874 15.6005 30.2874H26.4005C29.3796 30.2874 31.9362 32.0967 33.0311 34.6765M28.2005 16.7874C28.2005 20.7638 24.9769 23.9874 21.0005 23.9874C17.024 23.9874 13.8005 20.7638 13.8005 16.7874C13.8005 12.8109 17.024 9.58735 21.0005 9.58735C24.9769 9.58735 28.2005 12.8109 28.2005 16.7874ZM39.0005 21.2874C39.0005 31.2285 30.9416 39.2874 21.0005 39.2874C11.0594 39.2874 3.00049 31.2285 3.00049 21.2874C3.00049 11.3462 11.0594 3.28735 21.0005 3.28735C30.9416 3.28735 39.0005 11.3462 39.0005 21.2874Z" stroke="#00A2FF" stroke-width="3.33333" stroke-linecap="round" stroke-linejoin="round"/>
</svg>
