<svg width="42" height="43" viewBox="0 0 42 43" fill="none" xmlns="http://www.w3.org/2000/svg">
<path d="M20.9998 39.2874C30.9409 39.2874 38.9998 31.2285 38.9998 21.2874C38.9998 11.3462 30.9409 3.28735 20.9998 3.28735C11.0586 3.28735 2.99976 11.3462 2.99976 21.2874C2.99976 31.2285 11.0586 39.2874 20.9998 39.2874Z" stroke="#00A2FF" stroke-width="3.33333" stroke-linecap="round" stroke-linejoin="round"/>
<path d="M19.8962 26.3761C19.032 26.3761 18.6 25.6987 18.6 24.3438C18.6 23.4904 18.792 22.7276 19.1761 22.0556C19.5708 21.3835 20.2055 20.6101 21.0803 19.7353C21.9657 18.8498 22.6112 18.0871 23.0165 17.447C23.4326 16.7963 23.6406 16.0548 23.6406 15.2227C23.6406 14.3906 23.3686 13.7506 22.8245 13.3025C22.2804 12.8544 21.6457 12.6304 20.9203 12.6304C20.1949 12.6304 19.3254 12.9398 18.312 13.5585C17.3092 14.1773 16.6478 14.4866 16.3277 14.4866C15.6983 14.4866 15.3836 14.1399 15.3836 13.4465V13.1905C15.3836 12.3904 15.933 11.633 17.0318 10.9182C18.1306 10.1928 19.3948 9.83008 20.8243 9.83008H21.4483C22.9739 9.83008 24.286 10.2995 25.3848 11.2382C26.4836 12.1664 27.033 13.3505 27.033 14.7907V15.3988C27.033 17.2336 26.0462 19.0312 24.0727 20.7914C22.7178 22.0076 21.9231 22.781 21.6884 23.1117C21.4537 23.4424 21.3097 23.7358 21.2563 23.9918C21.2136 24.2372 21.1603 24.5945 21.0963 25.0639C21.043 25.5227 20.995 25.8 20.9523 25.896C20.8029 26.2161 20.5362 26.3761 20.1522 26.3761H19.8962ZM19.3521 32.7449C19.1921 32.7129 19.0107 32.6969 18.808 32.6969C18.616 32.6969 18.3866 32.5635 18.1199 32.2968C17.8532 32.0301 17.7199 31.6247 17.7199 31.0807V30.6006L17.7679 30.2486L17.8159 29.9285C17.8159 29.5765 17.9599 29.2778 18.248 29.0324C18.5467 28.787 18.8827 28.6644 19.2561 28.6644C19.3414 28.643 19.4054 28.6324 19.4481 28.6324L19.7361 28.6164L20.0882 28.6484L20.3602 28.6804C20.6909 28.6804 20.9896 28.819 21.2563 29.0964C21.5337 29.3631 21.6724 29.7525 21.6724 30.2646V30.6966C21.6404 30.8246 21.6244 30.942 21.6244 31.0487C21.6244 31.4754 21.4537 31.8594 21.1123 32.2008C20.7816 32.5315 20.4029 32.6969 19.9762 32.6969L19.6241 32.7449H19.3521Z" fill="#00A2FF"/>
</svg>
