<svg width="52" height="52" viewBox="0 0 52 52" fill="none" xmlns="http://www.w3.org/2000/svg">
<rect x="-0.5" y="0.5" width="50.3916" height="50.3916" rx="9.5" transform="matrix(-1 0 0 1 50.5146 0.265137)" fill="white" stroke="#C2C9D1"/>
<g clip-path="url(#clip0_1_8012)">
<path d="M27.0393 25.9609L22.0135 31.18C21.6406 31.5673 21.6406 32.1801 22.0135 32.5673L22.2517 32.8147C22.645 33.2231 23.2989 33.2231 23.6923 32.8147L29.6242 26.6546C29.9971 26.2673 29.9971 25.6546 29.6242 25.2673L23.6923 19.1072C23.2989 18.6987 22.645 18.6987 22.2517 19.1072L22.0135 19.3546C21.6406 19.7418 21.6406 20.3546 22.0135 20.7418L27.0393 25.9609Z" fill="#1D1D1D"/>
</g>
<defs>
<clipPath id="clip0_1_8012">
<path d="M19.1166 8.61627C13.5937 8.61627 9.11658 13.0934 9.11658 18.6163V33.3056C9.11658 38.8284 13.5937 43.3056 19.1166 43.3056H32.5211C38.044 43.3056 42.5211 38.8285 42.5211 33.3056V18.6163C42.5211 13.0934 38.044 8.61627 32.5211 8.61627H19.1166Z" fill="white"/>
</clipPath>
</defs>
</svg>
