<svg width="45" height="46" viewBox="0 0 45 46" fill="none" xmlns="http://www.w3.org/2000/svg">
<g clip-path="url(#clip0_292_3684)">
<ellipse cx="22.8709" cy="23.0001" rx="16.369" ry="16.2595" transform="rotate(-90 22.8709 23.0001)" fill="#00A2FF"/>
<path d="M24.4787 23.0002L17.6402 15.8508C17.2704 15.4642 17.2704 14.855 17.6402 14.4684L18.3987 13.6754C18.7925 13.2637 19.4502 13.2637 19.844 13.6754L28.1023 22.309C28.4721 22.6956 28.4721 23.3048 28.1023 23.6914L19.844 32.3251C19.4502 32.7368 18.7925 32.7368 18.3987 32.3251L17.6402 31.5321C17.2704 31.1454 17.2704 30.5362 17.6402 30.1496L24.4787 23.0002Z" fill="white"/>
</g>
<defs>
<clipPath id="clip0_292_3684">
<path d="M10.8711 46C5.34825 46 0.871094 41.5228 0.871094 36L0.871094 10C0.871094 4.47715 5.34825 0 10.8711 0H34.8711C40.3939 0 44.8711 4.47715 44.8711 10V36C44.8711 41.5228 40.3939 46 34.8711 46H10.8711Z" fill="white"/>
</clipPath>
</defs>
</svg>
