<svg width="47" height="44" viewBox="0 0 47 44" fill="none" xmlns="http://www.w3.org/2000/svg">
<g clip-path="url(#clip0_292_3776)">
<ellipse cx="23.52" cy="21.9998" rx="16.4057" ry="16.2595" fill="#00A2FF"/>
<path d="M23.5199 23.6076L30.6877 16.7668C31.0741 16.398 31.6821 16.398 32.0685 16.7668L32.8649 17.5268C33.2776 17.9208 33.2776 18.5797 32.8649 18.9737L24.2103 27.2334C23.8239 27.6022 23.2159 27.6022 22.8295 27.2334L14.175 18.9737C13.7622 18.5797 13.7622 17.9208 14.175 17.5268L14.9713 16.7668C15.3577 16.398 15.9657 16.398 16.3521 16.7668L23.5199 23.6076Z" fill="white"/>
</g>
<defs>
<clipPath id="clip0_292_3776">
<path d="M0.468262 10C0.468262 4.47715 4.94542 0 10.4683 0H36.5713C42.0941 0 46.5713 4.47715 46.5713 10V34C46.5713 39.5228 42.0941 44 36.5713 44H10.4683C4.94542 44 0.468262 39.5228 0.468262 34V10Z" fill="white"/>
</clipPath>
</defs>
</svg>
