<svg width="41" height="41" viewBox="0 0 41 41" fill="none" xmlns="http://www.w3.org/2000/svg">
<rect x="1.14404" y="0.909912" width="39" height="39" rx="11.5" fill="white" stroke="#C2C9D1"/>
<g clip-path="url(#clip0_1_8247)">
<path d="M19.6941 20.4099L23.5167 24.3795C23.8567 24.7326 23.8567 25.2914 23.5167 25.6445C23.158 26.017 22.5617 26.017 22.203 25.6445L17.8302 21.1035C17.4573 20.7163 17.4573 20.1035 17.8302 19.7162L22.203 15.1753C22.5617 14.8028 23.158 14.8028 23.5167 15.1753C23.8567 15.5284 23.8567 16.0872 23.5167 16.4403L19.6941 20.4099Z" fill="#1D1D1D"/>
</g>
<defs>
<clipPath id="clip0_1_8247">
<path d="M23.644 6.90991C29.1669 6.90991 33.644 11.3871 33.644 16.9099V23.9099C33.644 29.4328 29.1669 33.9099 23.644 33.9099H17.644C12.1212 33.9099 7.64404 29.4328 7.64404 23.9099V16.9099C7.64404 11.3871 12.1212 6.90991 17.644 6.90991H23.644Z" fill="white"/>
</clipPath>
</defs>
</svg>
