<svg width="20" height="21" viewBox="0 0 20 21" fill="none" xmlns="http://www.w3.org/2000/svg">
<circle cx="10.1064" cy="10.4375" r="9.60791" fill="#00A2FF"/>
<path d="M8.22928 13.8361C7.88584 13.4926 7.88584 12.9358 8.22928 12.5924L13.781 7.04068C14.1244 6.69724 14.6812 6.69724 15.0247 7.04068C15.3681 7.38412 15.3681 7.94095 15.0247 8.28439L9.47299 13.8361C9.12955 14.1795 8.57272 14.1795 8.22928 13.8361Z" fill="white"/>
<path d="M5.18723 9.54947C5.53067 9.20603 6.0875 9.20603 6.43094 9.54947L9.47319 12.5917C9.81663 12.9352 9.81663 13.492 9.47319 13.8354C9.12975 14.1789 8.57292 14.1789 8.22948 13.8354L5.18723 10.7932C4.84379 10.4497 4.84379 9.89291 5.18723 9.54947Z" fill="white"/>
</svg>