<svg width="40" height="41" viewBox="0 0 40 41" fill="none" xmlns="http://www.w3.org/2000/svg">
<rect x="-0.5" y="0.5" width="39" height="39" rx="11.5" transform="matrix(-1 0 0 1 39 0.409912)" fill="white" stroke="#C2C9D1"/>
<g clip-path="url(#clip0_1_8253)">
<path d="M20.9499 20.4099L17.1273 24.3795C16.7873 24.7326 16.7873 25.2914 17.1273 25.6445C17.486 26.017 18.0823 26.017 18.441 25.6445L22.8138 21.1035C23.1867 20.7163 23.1867 20.1035 22.8138 19.7162L18.441 15.1753C18.0823 14.8028 17.486 14.8028 17.1273 15.1753C16.7873 15.5284 16.7873 16.0872 17.1273 16.4403L20.9499 20.4099Z" fill="#1D1D1D"/>
</g>
<defs>
<clipPath id="clip0_1_8253">
<path d="M17 6.90991C11.4772 6.90991 7 11.3871 7 16.9099V23.9099C7 29.4328 11.4772 33.9099 17 33.9099H23C28.5228 33.9099 33 29.4328 33 23.9099V16.9099C33 11.3871 28.5228 6.90991 23 6.90991H17Z" fill="white"/>
</clipPath>
</defs>
</svg>
