<svg width="65" height="65" viewBox="0 0 65 65" fill="none" xmlns="http://www.w3.org/2000/svg">
<path d="M35.8861 48.8842H16.6941M42.2835 35.9407H16.6941M29.4888 6.8179H19.253C13.8788 6.8179 11.1916 6.8179 9.13893 7.87596C7.33332 8.80666 5.86532 10.2917 4.94532 12.1183C3.89941 14.1949 3.89941 16.9133 3.89941 22.3501V46.2955C3.89941 51.7322 3.89941 54.4506 4.94532 56.5272C5.86532 58.3538 7.33332 59.8389 9.13893 60.7696C11.1916 61.8276 13.8788 61.8276 19.253 61.8276H42.9232C48.2975 61.8276 50.9846 61.8276 53.0373 60.7696C54.8429 59.8389 56.3109 58.3538 57.231 56.5272C58.2769 54.4506 58.2769 51.7322 58.2769 46.2955V35.9407M58.6649 6.42532C62.4124 10.2164 62.4124 16.3629 58.6649 20.1539C54.9174 23.945 48.8416 23.945 45.0941 20.1539C41.3466 16.3629 41.3466 10.2164 45.0941 6.42532C48.8416 2.63427 54.9174 2.63427 58.6649 6.42532Z" stroke="url(#paint0_linear_116_10714)" stroke-width="6" stroke-linecap="round" stroke-linejoin="round"/>
<defs>
<linearGradient id="paint0_linear_116_10714" x1="3.89941" y1="4.89256" x2="72.6615" y2="39.7814" gradientUnits="userSpaceOnUse">
<stop stop-color="#00A2FF"/>
<stop offset="0.513961" stop-color="#1B75DE"/>
<stop offset="1" stop-color="#113045"/>
</linearGradient>
</defs>
</svg>
