<svg width="40" height="40" viewBox="0 0 40 40" fill="none" xmlns="http://www.w3.org/2000/svg">
<rect x="0.5" y="0.5" width="39" height="39" rx="12.5" fill="white"/>
<path d="M16.8588 25.6868C16.284 25.112 16.284 24.18 16.8588 23.6052L26.1509 14.3131C26.7258 13.7382 27.6578 13.7382 28.2326 14.3131V14.3131C28.8074 14.8879 28.8074 15.8199 28.2326 16.3947L18.9405 25.6868C18.3656 26.2617 17.4337 26.2617 16.8588 25.6868V25.6868Z" fill="#00A2FF"/>
<path d="M11.7672 18.5123C12.342 17.9374 13.274 17.9374 13.8488 18.5123L18.9408 23.6042C19.5156 24.179 19.5156 25.111 18.9408 25.6859V25.6859C18.3659 26.2607 17.4339 26.2607 16.8591 25.6859L11.7672 20.5939C11.1923 20.0191 11.1923 19.0871 11.7672 18.5123V18.5123Z" fill="#00A2FF"/>
<rect x="0.5" y="0.5" width="39" height="39" rx="12.5" stroke="#00A2FF"/>
</svg>
