<svg width="32" height="33" viewBox="0 0 32 33" fill="none" xmlns="http://www.w3.org/2000/svg">
<path d="M0.75 13C0.75 6.23451 6.23451 0.75 13 0.75H19C25.7655 0.75 31.25 6.23451 31.25 13V19C31.25 25.7655 25.7655 31.25 19 31.25H13C6.23451 31.25 0.75 25.7655 0.75 19V13Z" fill="white" stroke="#00A2FF" stroke-width="1.5"/>
<path d="M13.1326 21.4148C12.5578 20.84 12.5578 19.908 13.1326 19.3332L22.4247 10.0411C22.9996 9.46625 23.9316 9.46625 24.5064 10.0411C25.0812 10.6159 25.0812 11.5479 24.5064 12.1227L15.2143 21.4148C14.6394 21.9897 13.7075 21.9897 13.1326 21.4148Z" fill="#00A2FF"/>
<path d="M8.04121 14.24C8.61604 13.6652 9.54802 13.6652 10.1229 14.24L15.2148 19.332C15.7896 19.9068 15.7896 20.8388 15.2148 21.4136C14.64 21.9885 13.708 21.9885 13.1332 21.4136L8.04121 16.3217C7.46637 15.7469 7.46637 14.8149 8.04121 14.24Z" fill="#00A2FF"/>
</svg>
