<svg width="48" height="48" viewBox="0 0 48 48" fill="none" xmlns="http://www.w3.org/2000/svg">
<rect x="0.5" y="0.5" width="47" height="47" rx="9.5" fill="white" stroke="#C2C9D1"/>
<g clip-path="url(#clip0_116_9248)">
<path d="M22.8597 23.9995L27.5098 28.8284C27.8827 29.2156 27.8827 29.8284 27.5098 30.2157L27.3789 30.3515C26.9856 30.76 26.3316 30.76 25.9383 30.3515L20.4895 24.6931C20.1166 24.3059 20.1166 23.6931 20.4895 23.3058L25.9383 17.6474C26.3316 17.239 26.9856 17.239 27.3789 17.6474L27.5098 17.7833C27.8827 18.1706 27.8827 18.7834 27.5098 19.1706L22.8597 23.9995Z" fill="#C2C9D1"/>
</g>
<defs>
<clipPath id="clip0_116_9248">
<path d="M29.5996 7.7998C35.1225 7.7998 39.5996 12.277 39.5996 17.7998V30.1998C39.5996 35.7227 35.1225 40.1998 29.5996 40.1998H18.3996C12.8768 40.1998 8.39961 35.7227 8.39961 30.1998V17.7998C8.39961 12.277 12.8768 7.7998 18.3996 7.7998H29.5996Z" fill="white"/>
</clipPath>
</defs>
</svg>
