<svg width="49" height="48" viewBox="0 0 49 48" fill="none" xmlns="http://www.w3.org/2000/svg">
<rect x="-0.5" y="0.5" width="47" height="47" rx="9.5" transform="matrix(-1 0 0 1 47.6006 0)" fill="white" stroke="#C2C9D1"/>
<g clip-path="url(#clip0_116_9253)">
<path d="M25.7408 23.9995L21.0908 28.8284C20.7179 29.2156 20.7179 29.8284 21.0908 30.2157L21.2216 30.3515C21.615 30.76 22.2689 30.76 22.6623 30.3515L28.1111 24.6931C28.484 24.3059 28.484 23.6931 28.1111 23.3058L22.6623 17.6474C22.2689 17.239 21.615 17.239 21.2216 17.6474L21.0908 17.7833C20.7179 18.1706 20.7179 18.7834 21.0908 19.1706L25.7408 23.9995Z" fill="#1D1D1D"/>
</g>
<defs>
<clipPath id="clip0_116_9253">
<path d="M19.001 7.7998C13.4781 7.7998 9.00098 12.277 9.00098 17.7998V30.1998C9.00098 35.7227 13.4781 40.1998 19.001 40.1998H30.201C35.7238 40.1998 40.201 35.7227 40.201 30.1998V17.7998C40.201 12.277 35.7238 7.7998 30.201 7.7998H19.001Z" fill="white"/>
</clipPath>
</defs>
</svg>
