<svg width="29" height="22" viewBox="0 0 29 22" fill="none" xmlns="http://www.w3.org/2000/svg">
<line x1="0.571254" y1="21.1334" x2="9.57125" y2="6.13338" stroke="#FF0101"/>
<line x1="16.5598" y1="19.6277" x2="9.55976" y2="6.62768" stroke="#FF0101"/>
<path d="M27.486 1.2733C27.4212 1.00487 27.1511 0.83979 26.8827 0.904584L22.5083 1.96047C22.2399 2.02526 22.0748 2.29539 22.1396 2.56383C22.2044 2.83226 22.4745 2.99734 22.743 2.93255L26.6313 1.99399L27.5698 5.88231C27.6346 6.15075 27.9048 6.31583 28.1732 6.25104C28.4416 6.18624 28.6067 5.91611 28.5419 5.64767L27.486 1.2733ZM16.4266 19.6513L27.4266 1.65135L26.5734 1.1299L15.5734 19.1299L16.4266 19.6513Z" fill="#FF0101"/>
</svg>
