<svg width="48" height="47" viewBox="0 0 48 47" fill="none" xmlns="http://www.w3.org/2000/svg">
<g clip-path="url(#clip0_1_9277)">
<ellipse cx="24" cy="23.003" rx="17.0807" ry="16.9986" fill="#C2C9D1"/>
<path d="M22.312 23.0047L29.5176 30.4515C29.8928 30.8392 29.8928 31.4545 29.5176 31.8422L28.6586 32.73C28.2656 33.1362 27.6143 33.1362 27.2213 32.73L18.4838 23.7001C18.1086 23.3124 18.1086 22.697 18.4838 22.3093L27.2213 13.2793C27.6143 12.8732 28.2656 12.8732 28.6586 13.2793L29.5176 14.1671C29.8928 14.5548 29.8928 15.1702 29.5176 15.5579L22.312 23.0047Z" fill="white"/>
</g>
<defs>
<clipPath id="clip0_1_9277">
<path d="M0 10.002C0 4.47911 4.47715 0.00195312 10 0.00195312H38C43.5229 0.00195312 48 4.47911 48 10.002V36.002C48 41.5248 43.5228 46.002 38 46.002H10C4.47715 46.002 0 41.5248 0 36.002V10.002Z" fill="white"/>
</clipPath>
</defs>
</svg>
