<svg width="49" height="46" viewBox="0 0 49 46" fill="none" xmlns="http://www.w3.org/2000/svg">
<g clip-path="url(#clip0_1_9273)">
<ellipse cx="24.3252" cy="23.0011" rx="17.0807" ry="16.9986" fill="#00A2FF"/>
<path d="M26.0145 23.0022L18.8088 15.5553C18.4337 15.1677 18.4337 14.5523 18.8088 14.1646L19.6679 13.2768C20.0609 12.8706 20.7122 12.8706 21.1052 13.2768L29.8427 22.3068C30.2179 22.6945 30.2179 23.3098 29.8427 23.6975L21.1052 32.7275C20.7122 33.1337 20.0609 33.1337 19.6679 32.7275L18.8088 31.8397C18.4337 31.452 18.4337 30.8367 18.8088 30.449L26.0145 23.0022Z" fill="white"/>
</g>
<defs>
<clipPath id="clip0_1_9273">
<path d="M0.325195 10C0.325195 4.47715 4.80235 0 10.3252 0H38.3252C43.848 0 48.3252 4.47715 48.3252 10V36C48.3252 41.5228 43.848 46 38.3252 46H10.3252C4.80235 46 0.325195 41.5228 0.325195 36V10Z" fill="white"/>
</clipPath>
</defs>
</svg>
