<svg width="32" height="34" viewBox="0 0 32 34" fill="none" xmlns="http://www.w3.org/2000/svg">
<g clip-path="url(#clip0_116_8430)">
<ellipse cx="17.0002" cy="16.0007" rx="12.0989" ry="11.8251" fill="#C2C9D1" fill-opacity="0.29"/>
<path d="M18.1963 15.9999L13.3072 11.0376C12.9237 10.6483 12.9237 10.0232 13.3072 9.63389L13.4975 9.44073C13.8892 9.04318 14.5305 9.04318 14.9222 9.44073L20.6931 15.298C21.0767 15.6873 21.0767 16.3124 20.6931 16.7017L14.9222 22.559C14.5305 22.9565 13.8892 22.9565 13.4975 22.559L13.3072 22.3658C12.9237 21.9765 12.9237 21.3514 13.3072 20.9622L18.1963 15.9999Z" fill="#1D1D1D"/>
</g>
<defs>
<clipPath id="clip0_116_8430">
<path d="M0 10C0 4.47715 4.47715 0 10 0L24 0C29.5228 0 34 4.47715 34 10V22C34 27.5228 29.5228 32 24 32H10C4.47715 32 0 27.5228 0 22L0 10Z" fill="white"/>
</clipPath>
</defs>
</svg>
