<svg width="32" height="34" viewBox="0 0 32 34" fill="none" xmlns="http://www.w3.org/2000/svg">
<g clip-path="url(#clip0_116_8422)">
<ellipse cx="15.9996" cy="17" rx="12.0989" ry="11.8251" transform="rotate(90 15.9996 17)" fill="#C2C9D1" fill-opacity="0.29"/>
<path d="M15.9999 18.1961L20.9622 13.307C21.3515 12.9234 21.9766 12.9234 22.3659 13.307L22.559 13.4973C22.9566 13.889 22.9566 14.5303 22.559 14.922L16.7017 20.6929C16.3124 21.0764 15.6874 21.0764 15.2981 20.6929L9.44077 14.922C9.04322 14.5303 9.04322 13.889 9.44077 13.4973L9.63393 13.307C10.0232 12.9234 10.6483 12.9234 11.0376 13.307L15.9999 18.1961Z" fill="#1D1D1D"/>
</g>
<defs>
<clipPath id="clip0_116_8422">
<path d="M22 0C27.5228 0 32 4.47715 32 10V24C32 29.5228 27.5228 34 22 34H10C4.47715 34 0 29.5228 0 24V10C0 4.47715 4.47715 0 10 0L22 0Z" fill="white"/>
</clipPath>
</defs>
</svg>
