<svg width="20" height="20" viewBox="0 0 20 20" fill="none" xmlns="http://www.w3.org/2000/svg">
<circle cx="10.2231" cy="9.78662" r="9.60791" fill="#1457A4"/>
<path d="M6.32303 13.1848C5.97959 12.8414 5.97959 12.2846 6.32303 11.9411L11.8747 6.38943C12.2182 6.04599 12.775 6.04599 13.1184 6.38943C13.4619 6.73287 13.4619 7.2897 13.1184 7.63314L7.56674 13.1848C7.2233 13.5283 6.66647 13.5283 6.32303 13.1848Z" fill="white"/>
<path d="M3.28104 8.89822C3.62448 8.55478 4.18131 8.55478 4.52475 8.89822L7.567 11.9405C7.91044 12.2839 7.91044 12.8407 7.567 13.1842C7.22356 13.5276 6.66673 13.5276 6.32329 13.1842L3.28104 10.1419C2.9376 9.79849 2.9376 9.24166 3.28104 8.89822Z" fill="white"/>
<path d="M10.3914 13.1839C10.048 12.8404 10.048 12.2836 10.3914 11.9402L15.9431 6.38846C16.2865 6.04502 16.8434 6.04502 17.1868 6.38846C17.5303 6.7319 17.5303 7.28873 17.1868 7.63217L11.6351 13.1839C11.2917 13.5273 10.7348 13.5273 10.3914 13.1839Z" fill="white"/>
<path d="M7.3494 8.89725C7.69284 8.5538 8.24967 8.5538 8.59311 8.89725L11.6354 11.9395C11.9788 12.2829 11.9788 12.8398 11.6354 13.1832C11.2919 13.5267 10.7351 13.5267 10.3917 13.1832L7.3494 10.141C7.00596 9.79752 7.00596 9.24069 7.3494 8.89725Z" fill="white"/>
</svg>
