<svg width="20" height="20" viewBox="0 0 20 20" fill="none" xmlns="http://www.w3.org/2000/svg">
<circle cx="10.0137" cy="9.78662" r="9.60791" fill="#00A2FF"/>
<path d="M8.13646 13.1852C7.79302 12.8418 7.79302 12.2849 8.13646 11.9415L13.6882 6.3898C14.0316 6.04636 14.5884 6.04636 14.9319 6.3898C15.2753 6.73324 15.2753 7.29007 14.9319 7.63351L9.38017 13.1852C9.03673 13.5287 8.4799 13.5287 8.13646 13.1852Z" fill="white"/>
<path d="M5.09445 8.89859C5.43789 8.55515 5.99472 8.55515 6.33816 8.89859L9.38042 11.9408C9.72386 12.2843 9.72386 12.8411 9.38042 13.1846C9.03698 13.528 8.48015 13.528 8.13671 13.1846L5.09445 10.1423C4.75101 9.79886 4.75101 9.24203 5.09445 8.89859Z" fill="white"/>
</svg>
