<svg width="21" height="20" viewBox="0 0 21 20" fill="none" xmlns="http://www.w3.org/2000/svg">
<circle cx="10.4927" cy="9.78662" r="9.60791" fill="#DF1010"/>
<path d="M7.09479 13.1841C6.75135 12.8407 6.75134 12.2838 7.09479 11.9404L12.6465 6.3887C12.9899 6.04526 13.5468 6.04526 13.8902 6.3887C14.2336 6.73214 14.2336 7.28897 13.8902 7.63241L8.3385 13.1841C7.99506 13.5276 7.43823 13.5276 7.09479 13.1841Z" fill="white"/>
<path d="M13.8902 13.1841C13.5468 13.5275 12.9899 13.5275 12.6465 13.1841L7.09479 7.63235C6.75135 7.28891 6.75135 6.73208 7.09479 6.38864C7.43823 6.0452 7.99506 6.0452 8.3385 6.38864L13.8902 11.9403C14.2336 12.2838 14.2336 12.8406 13.8902 13.1841Z" fill="white"/>
</svg>
