<svg width="21" height="20" viewBox="0 0 21 20" fill="none" xmlns="http://www.w3.org/2000/svg">
<circle cx="10.4927" cy="9.78662" r="9.60791" fill="#FFC412"/>
<path d="M8.61606 13.1844C8.27262 12.8409 8.27262 12.2841 8.61606 11.9406L14.1678 6.38895C14.5112 6.0455 15.068 6.0455 15.4115 6.38895C15.7549 6.73239 15.7549 7.28921 15.4115 7.63266L9.85977 13.1844C9.51633 13.5278 8.9595 13.5278 8.61606 13.1844Z" fill="white"/>
<path d="M5.57407 8.89773C5.91751 8.55429 6.47434 8.55429 6.81778 8.89773L9.86003 11.94C10.2035 12.2834 10.2035 12.8403 9.86003 13.1837C9.51659 13.5271 8.95976 13.5271 8.61632 13.1837L5.57407 10.1414C5.23063 9.798 5.23063 9.24118 5.57407 8.89773Z" fill="white"/>
</svg>
