<svg width="20" height="20" viewBox="0 0 20 20" fill="none" xmlns="http://www.w3.org/2000/svg">
<circle cx="10.2231" cy="9.78662" r="9.60791" fill="#C2C9D1"/>
<path d="M8.34592 13.1852C8.00247 12.8418 8.00247 12.2849 8.34592 11.9415L13.8976 6.3898C14.2411 6.04636 14.7979 6.04636 15.1413 6.3898C15.4848 6.73324 15.4848 7.29007 15.1413 7.63351L9.58963 13.1852C9.24618 13.5287 8.68936 13.5287 8.34592 13.1852Z" fill="white"/>
<path d="M5.30393 8.89859C5.64737 8.55515 6.2042 8.55515 6.54764 8.89859L9.58989 11.9408C9.93333 12.2843 9.93333 12.8411 9.58989 13.1846C9.24645 13.528 8.68962 13.528 8.34618 13.1846L5.30393 10.1423C4.96048 9.79886 4.96049 9.24203 5.30393 8.89859Z" fill="white"/>
</svg>
